<?xml version="1.0" encoding="UTF-8"?>
<svg version="1.1" xmlns="http://www.w3.org/2000/svg" width="32" height="32">
<path d="M0 0 C13.97229348 -0.60749102 13.97229348 -0.60749102 19.1953125 3.890625 C23.25335538 8.72084607 24.47896578 11.58185853 24 18 C23.56359454 20.49114785 23.06354271 22.97200066 22.5 25.4375 C22.2215625 26.67371094 21.943125 27.90992188 21.65625 29.18359375 C21.4396875 30.11300781 21.223125 31.04242187 21 32 C16.85387186 31.86186975 12.70818838 31.71321141 8.5625 31.5625 C7.37849609 31.52318359 6.19449219 31.48386719 4.97460938 31.44335938 C3.84990234 31.40146484 2.72519531 31.35957031 1.56640625 31.31640625 C0.52427979 31.27974854 -0.51784668 31.24309082 -1.59155273 31.20532227 C-4 31 -4 31 -5 30 C-5.08758003 28.00035018 -5.10696576 25.9976389 -5.09765625 23.99609375 C-5.09443359 22.78115234 -5.09121094 21.56621094 -5.08789062 20.31445312 C-5.07951172 19.03505859 -5.07113281 17.75566406 -5.0625 16.4375 C-5.05798828 15.15423828 -5.05347656 13.87097656 -5.04882812 12.54882812 C-5.03699545 9.36583978 -5.02051068 6.18294238 -5 3 C-3.35 2.67 -1.7 2.34 0 2 C0 1.34 0 0.68 0 0 Z " fill="#3C8C82" transform="translate(8,0)"/>
<path d="M0 0 C13.97229348 -0.60749102 13.97229348 -0.60749102 19.1953125 3.890625 C23.25335538 8.72084607 24.47896578 11.58185853 24 18 C23.56359454 20.49114785 23.06354271 22.97200066 22.5 25.4375 C22.2215625 26.67371094 21.943125 27.90992188 21.65625 29.18359375 C21.4396875 30.11300781 21.223125 31.04242187 21 32 C19.02 32 17.04 32 15 32 C16.32 31.34 17.64 30.68 19 30 C19.17545258 26.792367 19.28121626 23.58597676 19.375 20.375 C19.42527344 19.47136719 19.47554687 18.56773438 19.52734375 17.63671875 C19.62735844 13.0693812 19.552164 9.90252102 16.40625 6.40625 C13.15698372 3.69516447 10.3664204 3.2115596 6.125 3.125 C4.97257813 3.08632813 3.82015625 3.04765625 2.6328125 3.0078125 C1.76398437 3.00523438 0.89515625 3.00265625 0 3 C0 2.01 0 1.02 0 0 Z " fill="#D97170" transform="translate(8,0)"/>
<path d="M0 0 C1.14926266 0.95421808 2.29430541 1.91352045 3.4375 2.875 C4.07558594 3.40867187 4.71367187 3.94234375 5.37109375 4.4921875 C7 6 7 6 8 8 C5.36 8 2.72 8 0 8 C0 5.36 0 2.72 0 0 Z " fill="#115E59" transform="translate(20,3)"/>
</svg>
